<mxfile host="Electron" modified="2023-11-02T13:36:55.603Z" agent="Mozilla/5.0 (Windows NT 10.0; Win64; x64) AppleWebKit/537.36 (KHTML, like Gecko) draw.io/22.0.3 Chrome/114.0.5735.289 Electron/25.8.4 Safari/537.36" etag="qPP_rOp8rkSIiBDaccCh" version="22.0.3" type="device" pages="3">
  <diagram name="Page-1" id="IHP7D4Me0NVqwyBUb0IM">
    <mxGraphModel dx="1955" dy="1778" grid="1" gridSize="10" guides="1" tooltips="1" connect="1" arrows="1" fold="1" page="1" pageScale="1" pageWidth="850" pageHeight="1100" math="0" shadow="0">
      <root>
        <mxCell id="0" />
        <mxCell id="1" parent="0" />
        <mxCell id="yyovYkQ6GxbMK0OP2THm-2" value="" style="rounded=0;whiteSpace=wrap;html=1;" vertex="1" parent="1">
          <mxGeometry x="80" y="80" width="360" height="240" as="geometry" />
        </mxCell>
        <mxCell id="yyovYkQ6GxbMK0OP2THm-3" value="Главное окно" style="text;html=1;strokeColor=none;fillColor=none;align=center;verticalAlign=middle;whiteSpace=wrap;rounded=0;" vertex="1" parent="1">
          <mxGeometry x="95" y="40" width="170" height="30" as="geometry" />
        </mxCell>
        <mxCell id="yyovYkQ6GxbMK0OP2THm-4" value="Всего расходов" style="text;html=1;strokeColor=none;fillColor=none;align=center;verticalAlign=middle;whiteSpace=wrap;rounded=0;" vertex="1" parent="1">
          <mxGeometry x="95" y="110" width="125" height="30" as="geometry" />
        </mxCell>
        <mxCell id="yyovYkQ6GxbMK0OP2THm-5" value="Месяц" style="text;html=1;strokeColor=none;fillColor=none;align=center;verticalAlign=middle;whiteSpace=wrap;rounded=0;" vertex="1" parent="1">
          <mxGeometry x="310" y="110" width="125" height="30" as="geometry" />
        </mxCell>
        <mxCell id="yyovYkQ6GxbMK0OP2THm-6" value="..." style="rounded=0;whiteSpace=wrap;html=1;" vertex="1" parent="1">
          <mxGeometry x="220" y="115" width="45" height="20" as="geometry" />
        </mxCell>
        <mxCell id="yyovYkQ6GxbMK0OP2THm-7" value="" style="rounded=0;whiteSpace=wrap;html=1;" vertex="1" parent="1">
          <mxGeometry x="680" y="40" width="320" height="140" as="geometry" />
        </mxCell>
        <mxCell id="yyovYkQ6GxbMK0OP2THm-8" value="Создание покупки" style="text;html=1;strokeColor=none;fillColor=none;align=center;verticalAlign=middle;whiteSpace=wrap;rounded=0;" vertex="1" parent="1">
          <mxGeometry x="770" width="160" height="30" as="geometry" />
        </mxCell>
        <mxCell id="yyovYkQ6GxbMK0OP2THm-9" value="стоимость" style="text;html=1;strokeColor=none;fillColor=none;align=center;verticalAlign=middle;whiteSpace=wrap;rounded=0;" vertex="1" parent="1">
          <mxGeometry x="690" y="95" width="160" height="30" as="geometry" />
        </mxCell>
        <mxCell id="yyovYkQ6GxbMK0OP2THm-10" value="количество" style="text;html=1;strokeColor=none;fillColor=none;align=center;verticalAlign=middle;whiteSpace=wrap;rounded=0;" vertex="1" parent="1">
          <mxGeometry x="690" y="125" width="160" height="30" as="geometry" />
        </mxCell>
        <mxCell id="yyovYkQ6GxbMK0OP2THm-11" value="" style="rounded=0;whiteSpace=wrap;html=1;" vertex="1" parent="1">
          <mxGeometry x="-470" y="70" width="360" height="240" as="geometry" />
        </mxCell>
        <mxCell id="yyovYkQ6GxbMK0OP2THm-12" value="Детализация покупок" style="text;html=1;strokeColor=none;fillColor=none;align=center;verticalAlign=middle;whiteSpace=wrap;rounded=0;" vertex="1" parent="1">
          <mxGeometry x="-470" y="30" width="170" height="30" as="geometry" />
        </mxCell>
        <mxCell id="yyovYkQ6GxbMK0OP2THm-13" value="" style="rounded=0;whiteSpace=wrap;html=1;" vertex="1" parent="1">
          <mxGeometry x="1160" width="320" height="140" as="geometry" />
        </mxCell>
        <mxCell id="yyovYkQ6GxbMK0OP2THm-14" value="Выбор товара" style="text;html=1;strokeColor=none;fillColor=none;align=center;verticalAlign=middle;whiteSpace=wrap;rounded=0;" vertex="1" parent="1">
          <mxGeometry x="1250" y="-40" width="160" height="30" as="geometry" />
        </mxCell>
        <mxCell id="yyovYkQ6GxbMK0OP2THm-17" value="Наименование товара" style="text;html=1;strokeColor=none;fillColor=none;align=center;verticalAlign=middle;whiteSpace=wrap;rounded=0;" vertex="1" parent="1">
          <mxGeometry x="720" y="50" width="160" height="30" as="geometry" />
        </mxCell>
        <mxCell id="yyovYkQ6GxbMK0OP2THm-18" value="Коллекция товаров" style="text;html=1;strokeColor=none;fillColor=none;align=center;verticalAlign=middle;whiteSpace=wrap;rounded=0;" vertex="1" parent="1">
          <mxGeometry x="1170" y="10" width="160" height="30" as="geometry" />
        </mxCell>
        <mxCell id="yyovYkQ6GxbMK0OP2THm-19" value="" style="rounded=0;whiteSpace=wrap;html=1;" vertex="1" parent="1">
          <mxGeometry x="1150" y="320" width="320" height="140" as="geometry" />
        </mxCell>
        <mxCell id="yyovYkQ6GxbMK0OP2THm-20" value="Категории" style="text;html=1;strokeColor=none;fillColor=none;align=center;verticalAlign=middle;whiteSpace=wrap;rounded=0;" vertex="1" parent="1">
          <mxGeometry x="1240" y="280" width="160" height="30" as="geometry" />
        </mxCell>
        <mxCell id="yyovYkQ6GxbMK0OP2THm-21" value="стоимость" style="text;html=1;strokeColor=none;fillColor=none;align=center;verticalAlign=middle;whiteSpace=wrap;rounded=0;" vertex="1" parent="1">
          <mxGeometry x="1160" y="375" width="160" height="30" as="geometry" />
        </mxCell>
        <mxCell id="yyovYkQ6GxbMK0OP2THm-22" value="количество" style="text;html=1;strokeColor=none;fillColor=none;align=center;verticalAlign=middle;whiteSpace=wrap;rounded=0;" vertex="1" parent="1">
          <mxGeometry x="1160" y="405" width="160" height="30" as="geometry" />
        </mxCell>
        <mxCell id="yyovYkQ6GxbMK0OP2THm-23" value="Наименование товара" style="text;html=1;strokeColor=none;fillColor=none;align=center;verticalAlign=middle;whiteSpace=wrap;rounded=0;" vertex="1" parent="1">
          <mxGeometry x="1190" y="330" width="160" height="30" as="geometry" />
        </mxCell>
        <mxCell id="yyovYkQ6GxbMK0OP2THm-24" value="Категория товара:&lt;br&gt;" style="text;html=1;strokeColor=none;fillColor=none;align=left;verticalAlign=top;whiteSpace=wrap;rounded=0;" vertex="1" parent="1">
          <mxGeometry x="1150" y="480" width="320" height="180" as="geometry" />
        </mxCell>
      </root>
    </mxGraphModel>
  </diagram>
  <diagram id="QbpkyEu1bem7XqxaARWY" name="Page-2">
    <mxGraphModel dx="2100" dy="1288" grid="1" gridSize="10" guides="1" tooltips="1" connect="1" arrows="1" fold="1" page="1" pageScale="1" pageWidth="850" pageHeight="1100" math="0" shadow="0">
      <root>
        <mxCell id="0" />
        <mxCell id="1" parent="0" />
        <mxCell id="hkYWRX7PS2x0I6AoCyd7-1" value="Покупка" style="rounded=0;whiteSpace=wrap;html=1;" vertex="1" parent="1">
          <mxGeometry x="160" y="200" width="120" height="40" as="geometry" />
        </mxCell>
        <mxCell id="hkYWRX7PS2x0I6AoCyd7-2" value="Тип" style="rounded=0;whiteSpace=wrap;html=1;" vertex="1" parent="1">
          <mxGeometry x="160" y="120" width="120" height="40" as="geometry" />
        </mxCell>
      </root>
    </mxGraphModel>
  </diagram>
  <diagram id="AhkhZptK_m2ipVIG2xRM" name="Page-3">
    <mxGraphModel dx="1900" dy="644" grid="1" gridSize="10" guides="1" tooltips="1" connect="1" arrows="1" fold="1" page="1" pageScale="1" pageWidth="850" pageHeight="1100" math="0" shadow="0">
      <root>
        <mxCell id="0" />
        <mxCell id="1" parent="0" />
        <mxCell id="W5ZdMLrj1IDegH42Wdm--1" value="" style="rounded=0;whiteSpace=wrap;html=1;" vertex="1" parent="1">
          <mxGeometry x="210" y="120" width="750" height="40" as="geometry" />
        </mxCell>
        <mxCell id="W5ZdMLrj1IDegH42Wdm--3" value="main form" style="rounded=0;whiteSpace=wrap;html=1;" vertex="1" parent="1">
          <mxGeometry x="200" y="220" width="160" height="60" as="geometry" />
        </mxCell>
        <mxCell id="W5ZdMLrj1IDegH42Wdm--4" value="product form" style="rounded=0;whiteSpace=wrap;html=1;" vertex="1" parent="1">
          <mxGeometry x="400" y="220" width="160" height="60" as="geometry" />
        </mxCell>
        <mxCell id="W5ZdMLrj1IDegH42Wdm--5" value="product type form" style="rounded=0;whiteSpace=wrap;html=1;" vertex="1" parent="1">
          <mxGeometry x="600" y="220" width="160" height="60" as="geometry" />
        </mxCell>
        <mxCell id="W5ZdMLrj1IDegH42Wdm--6" value="select product type form" style="rounded=0;whiteSpace=wrap;html=1;" vertex="1" parent="1">
          <mxGeometry x="800" y="220" width="160" height="60" as="geometry" />
        </mxCell>
        <mxCell id="W5ZdMLrj1IDegH42Wdm--9" style="edgeStyle=orthogonalEdgeStyle;rounded=0;orthogonalLoop=1;jettySize=auto;html=1;exitX=1;exitY=0.5;exitDx=0;exitDy=0;" edge="1" parent="1" source="W5ZdMLrj1IDegH42Wdm--7" target="W5ZdMLrj1IDegH42Wdm--8">
          <mxGeometry relative="1" as="geometry" />
        </mxCell>
        <mxCell id="W5ZdMLrj1IDegH42Wdm--7" value="А если для каждой формы свой контроллер" style="text;html=1;strokeColor=none;fillColor=none;align=center;verticalAlign=middle;whiteSpace=wrap;rounded=0;" vertex="1" parent="1">
          <mxGeometry x="200" y="360" width="160" height="40" as="geometry" />
        </mxCell>
        <mxCell id="W5ZdMLrj1IDegH42Wdm--13" style="edgeStyle=orthogonalEdgeStyle;rounded=0;orthogonalLoop=1;jettySize=auto;html=1;exitX=0.5;exitY=1;exitDx=0;exitDy=0;" edge="1" parent="1" source="W5ZdMLrj1IDegH42Wdm--8" target="W5ZdMLrj1IDegH42Wdm--10">
          <mxGeometry relative="1" as="geometry" />
        </mxCell>
        <mxCell id="W5ZdMLrj1IDegH42Wdm--8" value="зачем? ведь можно посылать запрос на форму через ее интерфейс" style="text;html=1;strokeColor=none;fillColor=none;align=center;verticalAlign=middle;whiteSpace=wrap;rounded=0;" vertex="1" parent="1">
          <mxGeometry x="345" y="420" width="160" height="40" as="geometry" />
        </mxCell>
        <mxCell id="W5ZdMLrj1IDegH42Wdm--14" style="edgeStyle=orthogonalEdgeStyle;rounded=0;orthogonalLoop=1;jettySize=auto;html=1;exitX=0.5;exitY=1;exitDx=0;exitDy=0;" edge="1" parent="1" source="W5ZdMLrj1IDegH42Wdm--10" target="W5ZdMLrj1IDegH42Wdm--11">
          <mxGeometry relative="1" as="geometry" />
        </mxCell>
        <mxCell id="W5ZdMLrj1IDegH42Wdm--10" value="Можно вложенные формы.&lt;br&gt;Но проблема, как обрабатывать запросы вложенных форм при обращении к сервисам." style="text;html=1;strokeColor=none;fillColor=none;align=center;verticalAlign=middle;whiteSpace=wrap;rounded=0;" vertex="1" parent="1">
          <mxGeometry x="170" y="570" width="280" height="70" as="geometry" />
        </mxCell>
        <mxCell id="W5ZdMLrj1IDegH42Wdm--15" style="edgeStyle=orthogonalEdgeStyle;rounded=0;orthogonalLoop=1;jettySize=auto;html=1;exitX=0.5;exitY=1;exitDx=0;exitDy=0;" edge="1" parent="1" source="W5ZdMLrj1IDegH42Wdm--11" target="W5ZdMLrj1IDegH42Wdm--12">
          <mxGeometry relative="1" as="geometry" />
        </mxCell>
        <mxCell id="W5ZdMLrj1IDegH42Wdm--11" value="Может помочь вложенность контроллера в эту форму, контроллер сам обращается к сервисам." style="text;html=1;strokeColor=none;fillColor=none;align=center;verticalAlign=middle;whiteSpace=wrap;rounded=0;" vertex="1" parent="1">
          <mxGeometry x="240" y="680" width="280" height="40" as="geometry" />
        </mxCell>
        <mxCell id="W5ZdMLrj1IDegH42Wdm--17" style="edgeStyle=orthogonalEdgeStyle;rounded=0;orthogonalLoop=1;jettySize=auto;html=1;exitX=0.5;exitY=1;exitDx=0;exitDy=0;" edge="1" parent="1" source="W5ZdMLrj1IDegH42Wdm--12" target="W5ZdMLrj1IDegH42Wdm--16">
          <mxGeometry relative="1" as="geometry" />
        </mxCell>
        <mxCell id="W5ZdMLrj1IDegH42Wdm--12" value="И после этого посылать сообщение на шину что данные изменились." style="text;html=1;strokeColor=none;fillColor=none;align=center;verticalAlign=middle;whiteSpace=wrap;rounded=0;" vertex="1" parent="1">
          <mxGeometry x="320" y="760" width="280" height="40" as="geometry" />
        </mxCell>
        <mxCell id="W5ZdMLrj1IDegH42Wdm--16" value="Получается это коммуникация только между окнами." style="text;html=1;strokeColor=none;fillColor=none;align=center;verticalAlign=middle;whiteSpace=wrap;rounded=0;" vertex="1" parent="1">
          <mxGeometry x="400" y="840" width="280" height="40" as="geometry" />
        </mxCell>
        <mxCell id="W5ZdMLrj1IDegH42Wdm--18" value="Одно дело просто отправить сообщение на окно, которое связанно со своим контроллером, который достает нужные данные из бд для этого окна" style="text;html=1;strokeColor=none;fillColor=none;align=center;verticalAlign=middle;whiteSpace=wrap;rounded=0;" vertex="1" parent="1">
          <mxGeometry x="-90" y="810" width="290" height="70" as="geometry" />
        </mxCell>
        <mxCell id="W5ZdMLrj1IDegH42Wdm--19" value="Другое дело если заказать создание объекта. Окно создает, обращается к своему контроллеру.&lt;br&gt;Объект создан.&lt;br&gt;Его надо вернуть заказчику." style="text;html=1;strokeColor=none;fillColor=none;align=center;verticalAlign=middle;whiteSpace=wrap;rounded=0;" vertex="1" parent="1">
          <mxGeometry x="-200" y="920" width="290" height="70" as="geometry" />
        </mxCell>
        <mxCell id="W5ZdMLrj1IDegH42Wdm--20" value="Так и вернуть.&lt;br&gt;В заказчике вызвать&lt;br&gt;var newProd = viewProd.create(new Product);" style="text;html=1;strokeColor=none;fillColor=none;align=center;verticalAlign=middle;whiteSpace=wrap;rounded=0;labelBackgroundColor=none;spacingLeft=4;spacingRight=4;spacingTop=4;spacingBottom=4;glass=0;shadow=0;" vertex="1" parent="1">
          <mxGeometry y="1080" width="280" height="70" as="geometry" />
        </mxCell>
        <mxCell id="W5ZdMLrj1IDegH42Wdm--21" value="При этом подписываться на события мне меньше нравится, так как надо отписываться потом." style="text;html=1;strokeColor=none;fillColor=none;align=center;verticalAlign=middle;whiteSpace=wrap;rounded=0;" vertex="1" parent="1">
          <mxGeometry x="40" y="1200" width="290" height="70" as="geometry" />
        </mxCell>
        <mxCell id="W5ZdMLrj1IDegH42Wdm--22" value="попробуем ввести лябда функцию, как в ангуляр когда делаем запрос из сервиса.&lt;br&gt;Только лямбда передается в объект окна" style="text;html=1;strokeColor=none;fillColor=none;align=center;verticalAlign=middle;whiteSpace=wrap;rounded=0;" vertex="1" parent="1">
          <mxGeometry x="-450" y="1030" width="290" height="70" as="geometry" />
        </mxCell>
      </root>
    </mxGraphModel>
  </diagram>
</mxfile>
